<svg xmlns="http://www.w3.org/2000/svg" viewBox="0 0 1200 630" fill="none">
  <!-- Background gradient -->
  <rect width="1200" height="630" fill="url(#bgGradient)"/>

  <defs>
    <linearGradient id="bgGradient" x1="0%" y1="0%" x2="100%" y2="100%">
      <stop offset="0%" style="stop-color:#0f172a;stop-opacity:1" />
      <stop offset="100%" style="stop-color:#1e293b;stop-opacity:1" />
    </linearGradient>
    <linearGradient id="rocketGradient" x1="0%" y1="0%" x2="100%" y2="100%">
      <stop offset="0%" style="stop-color:#6366f1;stop-opacity:1" />
      <stop offset="100%" style="stop-color:#8b5cf6;stop-opacity:1" />
    </linearGradient>
  </defs>

  <!-- Rocket icon (scaled up and centered) -->
  <g transform="translate(450, 200) scale(8)">
    <path d="M4.5 16.5c-1.5 1.26-2 5-2 5s3.74-.5 5-2c.71-.84.7-2.13-.09-2.91a2.18 2.18 0 0 0-2.91-.09z" fill="url(#rocketGradient)" stroke="url(#rocketGradient)" stroke-width="0.5"/>
    <path d="m12 15-3-3a22 22 0 0 1 2-3.95A12.88 12.88 0 0 1 22 2c0 2.72-.78 7.5-6 11a22.35 22.35 0 0 1-4 2z" fill="url(#rocketGradient)" stroke="url(#rocketGradient)" stroke-width="0.5"/>
    <path d="M9 12H4s.55-3.03 2-4c1.62-1.08 5 0 5 0" fill="url(#rocketGradient)" stroke="url(#rocketGradient)" stroke-width="0.5"/>
    <path d="M12 15v5s3.03-.55 4-2c1.08-1.62 0-5 0-5" fill="url(#rocketGradient)" stroke="url(#rocketGradient)" stroke-width="0.5"/>
  </g>

  <!-- Title -->
  <text x="600" y="480" font-family="system-ui, -apple-system, sans-serif" font-size="64" font-weight="700" fill="#ffffff" text-anchor="middle">LaunchOS</text>

  <!-- Subtitle -->
  <text x="600" y="540" font-family="system-ui, -apple-system, sans-serif" font-size="28" font-weight="400" fill="#94a3b8" text-anchor="middle">All-in-One AI Platform</text>
</svg>
